<svg width="400" height="364" viewBox="0 0 400 364" fill="none" xmlns="http://www.w3.org/2000/svg">
<path d="M170.834 119.394C157.311 142.353 168.41 160.727 172.116 165.808C167.584 174.142 164.091 183.304 162.871 192.932C162.593 195.124 164.148 197.127 166.342 197.405C166.513 197.428 166.682 197.438 166.85 197.438C168.837 197.438 170.563 195.96 170.82 193.938C175.148 159.766 212.896 130.241 213.275 129.947C215.025 128.594 215.348 126.079 213.997 124.33C212.644 122.581 210.13 122.253 208.38 123.606C207.281 124.453 189.742 138.162 176.653 158.221C173.161 152.234 168.339 139.415 177.738 123.456C183.591 113.513 192.705 111.933 203.261 110.101C211.008 108.76 219.593 107.27 227.309 102.061C229.786 113.905 233.58 140.423 222.221 156.033C216.557 163.819 207.561 167.963 195.483 168.345C193.273 168.413 191.535 170.26 191.606 172.469C191.675 174.638 193.453 176.349 195.609 176.349C195.652 176.349 195.694 176.349 195.737 176.349C210.426 175.886 221.519 170.63 228.715 160.73C245.885 137.099 234.078 95.5637 233.568 93.8052C233.171 92.4526 232.093 91.4014 230.728 91.0478C229.356 90.6966 227.908 91.0834 226.903 92.0801C219.795 99.109 211.101 100.618 201.891 102.213C190.426 104.199 178.569 106.254 170.834 119.394Z" fill="#148D00"/>
<path d="M166.967 220.815C167.477 221.033 168.011 221.135 168.534 221.135C170.091 221.135 171.572 220.221 172.223 218.698C173.09 216.664 172.142 214.313 170.105 213.446C138.533 200.001 119.793 168.034 123.471 133.893C127.678 94.8446 160.392 65.6611 198.679 64.783L188.785 72.7469C187.062 74.1352 186.791 76.6553 188.178 78.3781C188.968 79.3606 190.129 79.8708 191.3 79.8708C192.183 79.8708 193.071 79.5813 193.812 78.9856L212.024 64.325C212.853 63.6582 213.38 62.6924 213.494 61.634C213.608 60.5757 213.297 59.5197 212.632 58.6938L197.962 40.4927C196.575 38.7699 194.054 38.4993 192.328 39.8852C190.604 41.2734 190.333 43.7936 191.722 45.5164L200.761 56.7313C157.546 56.5652 120.23 89.1778 115.506 133.034C111.446 170.703 132.127 205.978 166.967 220.815Z" fill="#148D00"/>
<path d="M230.163 70.616C261.723 83.6605 281.209 116.503 277.55 150.487C273.338 189.531 240.61 218.693 202.34 219.588L212.231 211.629C213.954 210.238 214.225 207.723 212.839 205.997C211.45 204.272 208.931 204.004 207.205 205.39L188.99 220.051C188.161 220.717 187.632 221.683 187.518 222.739C187.404 223.795 187.715 224.854 188.382 225.682L203.054 243.883C203.847 244.865 205.006 245.376 206.174 245.376C207.057 245.376 207.945 245.084 208.688 244.49C210.412 243.1 210.683 240.58 209.294 238.859L200.248 227.637C200.355 227.637 200.462 227.647 200.569 227.647C243.637 227.642 280.798 195.091 285.515 151.344C289.551 113.85 268.051 77.6093 233.226 63.2145C231.184 62.3744 228.836 63.3426 227.993 65.3858C227.148 67.429 228.119 69.7688 230.163 70.616Z" fill="#148D00"/>
<path fill-rule="evenodd" clip-rule="evenodd" d="M164.418 291.2C165.182 309.182 160.164 327.363 149.418 345.8H90.9091C85.8909 345.8 81.8182 349.877 81.8182 354.9C81.8182 359.923 85.8909 364 90.9091 364H309.091C314.109 364 318.182 359.923 318.182 354.9C318.182 349.877 314.109 345.8 309.091 345.8H250.345C239.145 328.128 234.182 309.928 235.418 291.2H354.545C379.655 291.2 400 270.834 400 245.7V45.5C400 20.3658 379.655 0 354.545 0H45.4545C20.3455 0 0 20.3658 0 45.5C0 97.7522 0 193.448 0 245.7C0 270.834 20.3455 291.2 45.4545 291.2H164.418ZM170.073 345.8C179.146 327.418 183.255 309.2 182.618 291.2H217.182C216.164 309.837 220.146 328.037 229.364 345.8H170.073ZM381.818 227.5V245.7C381.818 260.77 369.6 273 354.545 273H45.4545C30.4 273 18.1818 260.77 18.1818 245.7L18.1818 227.5H381.818ZM381.818 215.5V227.5H18.1818L18.1818 209.3V45.5C18.1818 30.4304 30.4 18.2 45.4545 18.2H354.545C369.6 18.2 381.818 30.4304 381.818 45.5V215.5Z" fill="#148D00"/>
</svg>
